<?xml version="1.0" standalone="no"?>
<!DOCTYPE svg PUBLIC "-//W3C//DTD SVG 20010904//EN"
 "http://www.w3.org/TR/2001/REC-SVG-20010904/DTD/svg10.dtd">
<svg version="1.0" xmlns="http://www.w3.org/2000/svg"
 width="126.000000pt" height="129.000000pt" viewBox="0 0 126.000000 129.000000"
 preserveAspectRatio="xMidYMid meet">

<g transform="translate(0.000000,129.000000) scale(0.100000,-0.100000)"
fill="#000000" stroke="none">
<path d="M150 1215 c0 -10 -10 -15 -30 -15 -21 0 -30 -5 -30 -16 0 -8 -7 -22
-15 -30 -12 -13 -15 -47 -15 -184 0 -93 3 -175 6 -184 17 -44 24 -2 24 139 0
131 2 155 15 155 10 0 15 10 15 30 0 20 5 30 15 30 8 0 15 7 15 15 0 13 32 15
230 15 198 0 230 -2 230 -15 0 -8 9 -15 20 -15 19 0 20 -7 20 -200 0 -171 2
-200 15 -200 8 0 15 -7 15 -15 0 -8 7 -15 15 -15 8 0 15 -7 15 -15 0 -8 7 -15
15 -15 8 0 15 -7 15 -15 0 -13 29 -15 200 -15 193 0 200 -1 200 -20 0 -11 7
-20 15 -20 22 0 22 -421 0 -444 -8 -8 -15 -22 -15 -30 0 -14 -22 -16 -170 -16
l-170 0 0 -30 0 -30 170 0 c144 0 170 2 170 15 0 8 7 15 15 15 8 0 15 7 15 15
0 8 7 15 15 15 10 0 15 10 15 30 0 20 5 30 15 30 13 0 15 57 15 450 0 393 -2
450 -15 450 -11 0 -15 12 -15 45 0 33 -4 45 -15 45 -8 0 -15 7 -15 15 0 10
-10 15 -30 15 -20 0 -30 5 -30 15 0 13 -60 15 -480 15 -420 0 -480 -2 -480
-15z m960 -60 c0 -8 7 -15 15 -15 8 0 15 -7 15 -15 0 -8 7 -15 15 -15 13 0 15
-27 15 -185 0 -158 -2 -185 -15 -185 -8 0 -15 -7 -15 -15 0 -13 -27 -15 -185
-15 -158 0 -185 2 -185 15 0 8 -7 15 -15 15 -8 0 -15 7 -15 15 0 8 -7 15 -15
15 -13 0 -15 27 -15 185 0 158 2 185 15 185 8 0 15 7 15 15 0 13 27 15 185 15
158 0 185 -2 185 -15z"/>
<path d="M90 490 l0 -30 140 0 c118 0 140 -2 140 -15 0 -8 -7 -15 -15 -15 -10
0 -15 -10 -15 -30 0 -20 -5 -30 -15 -30 -8 0 -15 -7 -15 -15 0 -8 -7 -15 -15
-15 -8 0 -15 -7 -15 -15 0 -8 -7 -15 -15 -15 -8 0 -15 -7 -15 -15 0 -8 -7 -15
-15 -15 -8 0 -15 -7 -15 -15 0 -8 -9 -15 -19 -15 -11 0 -26 -7 -35 -15 -8 -8
-22 -15 -30 -15 -12 0 -16 -10 -16 -35 0 -24 -5 -35 -15 -35 -10 0 -15 -10
-15 -30 0 -20 -5 -30 -15 -30 -8 0 -15 -7 -15 -15 0 -10 10 -15 30 -15 20 0
30 5 30 15 0 8 7 15 15 15 8 0 15 7 15 15 0 8 7 15 15 15 9 0 18 7 21 15 4 8
12 15 20 15 9 0 14 12 14 35 0 32 2 35 30 35 20 0 30 5 30 15 0 9 9 15 25 15
20 0 27 6 32 30 3 17 12 30 19 30 8 0 14 7 14 15 0 8 7 15 15 15 8 0 15 7 15
15 0 10 10 15 30 15 l30 0 0 -140 0 -140 30 0 30 0 0 200 c0 171 -2 200 -15
200 -8 0 -15 7 -15 15 0 13 -29 15 -200 15 l-200 0 0 -30z"/>
</g>
</svg>
