<?xml version="1.0" standalone="no"?>
<!DOCTYPE svg PUBLIC "-//W3C//DTD SVG 20010904//EN"
 "http://www.w3.org/TR/2001/REC-SVG-20010904/DTD/svg10.dtd">
<svg version="1.0" xmlns="http://www.w3.org/2000/svg"
 width="500.000000pt" height="499.000000pt" viewBox="0 0 500.000000 499.000000"
 preserveAspectRatio="xMidYMid meet">

<g transform="translate(0.000000,499.000000) scale(0.100000,-0.100000)"
fill="#000000" stroke="none">
<path d="M730 3300 l0 -560 90 0 90 0 0 495 0 495 825 0 825 0 0 -495 0 -495
95 0 95 0 0 -70 0 -70 85 0 85 0 0 -70 0 -70 640 0 640 0 0 -630 0 -630 -640
0 -640 0 0 -75 0 -75 735 0 735 0 0 1405 0 1405 -1830 0 -1830 0 0 -560z
m3470 -135 l0 -565 -545 0 -545 0 0 70 0 70 -95 0 -95 0 0 70 0 70 -85 0 -85
0 0 425 0 425 725 0 725 0 0 -565z"/>
<path d="M730 2110 l0 -70 460 0 460 0 0 -70 0 -70 -90 0 -90 0 0 -70 0 -70
-95 0 -95 0 0 -75 0 -75 -90 0 -90 0 0 -65 0 -65 -95 0 -95 0 0 -75 0 -75 -90
0 -90 0 0 -140 0 -140 185 0 185 0 0 75 0 75 90 0 90 0 0 65 0 65 95 0 95 0 0
75 0 75 90 0 90 0 0 65 0 65 90 0 90 0 0 75 0 75 90 0 90 0 0 -355 0 -355 90
0 90 0 0 565 0 565 -730 0 -730 0 0 -70z"/>
</g>
</svg>
